<svg width="252" height="54" viewBox="0 0 252 54" fill="none" xmlns="http://www.w3.org/2000/svg">
<g clip-path="url(#clip0_631_124)">
<path d="M113.603 0H0V54H113.603V0Z" fill="#CDE2B3"/>
<path d="M59.069 12.1988C58.3997 12.0973 57.7304 11.9451 57.0511 11.7319C56.3818 11.5188 55.6725 11.2651 54.9433 10.9809V9.57031H65.6822V10.9809C64.5933 11.4681 63.4445 11.874 62.2258 12.1988L54.214 43.6692L51.2371 44.2578L43.5151 17.7601L35.9429 43.6793L33.0159 44.2679L24.5247 12.2191C23.8853 12.0567 23.266 11.874 22.6566 11.6812C22.0472 11.4884 21.4578 11.255 20.8784 11.0012V9.59061H33.3456V11.0012C32.7362 11.2245 32.1168 11.4478 31.4775 11.6609C30.8381 11.874 30.1489 12.0567 29.4196 12.2191L34.1647 31.8462L35.2236 38.1788H35.3235L37.0018 31.7447L43.4751 9.58046H45.1034L52.0563 31.7447L53.4448 38.0774H53.5447L54.6436 31.6432L59.059 12.2089L59.069 12.1988Z" fill="white"/>
<path d="M83.9534 40.2593C83.6937 40.8073 83.2941 41.335 82.7547 41.8221C82.2152 42.3093 81.5859 42.7355 80.8866 43.0907C80.1873 43.4459 79.4181 43.7301 78.589 43.9432C77.7598 44.1563 76.9107 44.2578 76.0516 44.2578C74.1635 44.2578 72.5053 43.9533 71.0667 43.3546C69.6282 42.7558 68.4295 41.8932 67.4705 40.7768C66.5114 39.6605 65.7822 38.3209 65.2927 36.7581C64.7932 35.1952 64.5535 33.4497 64.5535 31.5011C64.5535 27.3403 65.4925 24.174 67.3805 22.0022C69.2686 19.8304 71.9358 18.7344 75.3923 18.7344C76.5111 18.7344 77.61 18.8866 78.6989 19.2012C79.7877 19.5057 80.7567 20.0232 81.5959 20.7336C82.445 21.444 83.1343 22.398 83.6538 23.5853C84.1832 24.7727 84.4429 26.2442 84.4429 27.9898C84.4429 28.5378 84.423 29.1061 84.373 29.6744C84.3231 30.2427 84.2332 30.8516 84.1133 31.5011H69.1487C69.1487 32.861 69.3185 34.1398 69.6482 35.3271C69.9879 36.5145 70.4873 37.5395 71.1567 38.4224C71.826 39.2952 72.6751 39.9853 73.694 40.4927C74.713 41.0001 75.9117 41.2437 77.2903 41.2437C78.4092 41.2437 79.548 41.0813 80.6968 40.7566C81.8456 40.4318 82.7147 40.0056 83.2841 39.488L83.9534 40.2694V40.2593ZM75.1825 20.8757C73.3644 20.8757 71.9658 21.5049 71.0068 22.7532C70.0478 24.0014 69.4684 26.2036 69.2786 29.3497H79.8277C79.8577 29.0554 79.8876 28.7712 79.8976 28.4972C79.9176 28.2232 79.9176 27.9492 79.9176 27.6955C79.9176 25.615 79.538 23.9608 78.7688 22.7227C77.9996 21.4846 76.8008 20.8757 75.1725 20.8757H75.1825Z" fill="white"/>
<path d="M90.3767 10.4529L86.7305 10.0672V8.79865C87.7194 8.37242 88.8283 8.03752 90.067 7.77366C91.2958 7.5098 92.4446 7.26624 93.4935 7.04297H94.6923V24.1431H94.7922C95.3316 22.4889 96.2506 21.1696 97.5493 20.1954C98.848 19.2211 100.276 18.734 101.845 18.734C104.752 18.734 106.98 19.7387 108.538 21.7582C110.086 23.7676 110.866 26.8731 110.866 31.0644C110.866 35.2557 109.807 38.5946 107.679 40.8069C105.551 43.0193 102.494 44.1153 98.4983 44.1153C97.6992 44.1153 96.9 44.0544 96.1008 43.9428C95.3016 43.8312 94.5324 43.6891 93.8032 43.5267C93.0639 43.3643 92.4046 43.1715 91.8152 42.9381C91.2258 42.7148 90.7563 42.4814 90.3967 42.2582V10.4529H90.3767ZM100.546 21.7582C99.0078 21.7582 97.7691 22.286 96.8101 23.3414C95.8511 24.3968 95.1518 25.7364 94.7022 27.3602V40.949C95.2816 41.2738 95.9809 41.5275 96.8101 41.7C97.6392 41.8827 98.5183 41.9638 99.4474 41.9638C101.555 41.9638 103.223 41.0302 104.432 39.1629C105.651 37.2956 106.25 34.5961 106.25 31.0542C106.25 29.7857 106.15 28.5882 105.941 27.4515C105.731 26.3149 105.401 25.3204 104.932 24.478C104.472 23.6357 103.873 22.9659 103.154 22.4788C102.434 21.9917 101.565 21.7481 100.536 21.7481L100.546 21.7582Z" fill="white"/>
<path d="M130.705 38.8483C130.545 39.5587 130.276 40.2488 129.886 40.8983C129.506 41.5478 129.027 42.1262 128.467 42.6235C127.908 43.1309 127.269 43.5267 126.549 43.821C125.83 44.1153 125.051 44.2574 124.222 44.2574C121.055 44.2574 118.687 43.2324 117.129 41.1926C115.561 39.1426 114.781 35.9661 114.781 31.6429C114.781 27.3196 115.78 24.3157 117.778 22.1439C119.776 19.9721 122.474 18.8761 125.86 18.8761C127.039 18.8761 127.968 18.937 128.637 19.0486C129.307 19.1602 130.046 19.3632 130.845 19.6575V10.4529L127.199 10.0672V8.79865C128.128 8.41301 129.207 8.06796 130.435 7.77366C131.664 7.47935 132.843 7.23579 133.962 7.04297H135.16V40.8983L138.327 41.2839V42.3089C137.398 42.7656 136.439 43.1512 135.45 43.476C134.461 43.8007 133.482 44.024 132.523 44.1559H131.324L130.895 38.8483H130.705ZM125.191 41.2332C126.759 41.2332 128.008 40.7257 128.927 39.721C129.856 38.7163 130.495 37.3463 130.845 35.6312V21.8902C130.305 21.5654 129.666 21.3422 128.927 21.2102C128.188 21.0783 127.249 21.0174 126.1 21.0174C123.922 21.0174 122.264 21.9815 121.115 23.9199C119.966 25.8481 119.387 28.4258 119.387 31.6429C119.387 32.9723 119.497 34.2206 119.726 35.3673C119.946 36.5243 120.306 37.5391 120.785 38.4119C121.265 39.2846 121.864 39.9747 122.583 40.4822C123.303 40.9896 124.172 41.2332 125.201 41.2332H125.191Z" fill="white"/>
<path d="M160.814 40.2593C160.554 40.8073 160.155 41.335 159.615 41.8221C159.076 42.3093 158.446 42.7355 157.747 43.0907C157.048 43.4459 156.279 43.7301 155.45 43.9432C154.62 44.1563 153.771 44.2578 152.912 44.2578C151.024 44.2578 149.366 43.9533 147.927 43.3546C146.489 42.7558 145.29 41.8932 144.331 40.7768C143.372 39.6605 142.643 38.3209 142.153 36.7581C141.654 35.1952 141.414 33.4497 141.414 31.5011C141.414 27.3403 142.353 24.174 144.241 22.0022C146.129 19.8304 148.796 18.7344 152.253 18.7344C153.372 18.7344 154.471 18.8866 155.559 19.2012C156.648 19.5057 157.617 20.0232 158.456 20.7336C159.306 21.444 159.995 22.398 160.514 23.5853C161.044 24.7727 161.304 26.2442 161.304 27.9898C161.304 28.5378 161.284 29.1061 161.234 29.6744C161.184 30.2427 161.094 30.8516 160.974 31.5011H146.009C146.009 32.861 146.179 34.1398 146.509 35.3271C146.848 36.5145 147.348 37.5395 148.017 38.4224C148.687 39.2952 149.536 39.9853 150.555 40.4927C151.574 41.0001 152.772 41.2437 154.151 41.2437C155.27 41.2437 156.409 41.0813 157.557 40.7566C158.706 40.4318 159.575 40.0056 160.145 39.488L160.814 40.2694V40.2593ZM152.043 20.8757C150.225 20.8757 148.826 21.5049 147.867 22.7532C146.908 24.0014 146.329 26.2036 146.139 29.3497H156.688C156.718 29.0554 156.748 28.7712 156.758 28.4972C156.778 28.2232 156.778 27.9492 156.778 27.6955C156.778 25.615 156.399 23.9608 155.629 22.7227C154.86 21.4846 153.661 20.8757 152.033 20.8757H152.043Z" fill="white"/>
<path d="M177.697 38.1174C177.697 37.204 177.417 36.4327 176.858 35.8035C176.298 35.1743 175.589 34.5755 174.72 34.0275C173.861 33.4795 172.942 32.9416 171.963 32.4241C170.984 31.9065 170.065 31.2976 169.205 30.5973C168.346 29.8971 167.627 29.0954 167.068 28.182C166.508 27.2686 166.229 26.1523 166.229 24.8229C166.229 23.9501 166.428 23.1382 166.828 22.3872C167.228 21.6362 167.767 20.9969 168.436 20.459C169.106 19.9212 169.895 19.5051 170.784 19.1905C171.683 18.886 172.642 18.7236 173.661 18.7236C175.389 18.7236 176.798 18.8251 177.907 19.0179C179.015 19.2108 180.074 19.4848 181.093 19.8501C180.963 20.8853 180.814 21.9407 180.634 22.9961C180.454 24.0516 180.214 25.1273 179.894 26.2335H178.696L176.878 21.2607C176.498 21.0984 176.058 20.9969 175.579 20.9461C175.099 20.8954 174.6 20.8751 174.09 20.8751C173.511 20.8751 173.012 20.9766 172.582 21.1897C172.152 21.4028 171.783 21.6667 171.483 21.9914C171.183 22.3162 170.944 22.6917 170.784 23.1078C170.624 23.534 170.544 23.9501 170.544 24.3763C170.544 25.2491 170.824 26.0102 171.383 26.6394C171.943 27.2686 172.652 27.8573 173.521 28.3951C174.38 28.933 175.299 29.4607 176.278 29.9783C177.257 30.4959 178.176 31.0845 179.035 31.734C179.894 32.3835 180.614 33.1345 181.173 33.9971C181.733 34.8597 182.012 35.8847 182.012 37.0924C182.012 38.1985 181.783 39.1829 181.313 40.0659C180.853 40.9386 180.214 41.6896 179.395 42.3087C178.576 42.9277 177.637 43.4047 176.568 43.7498C175.499 44.0948 174.35 44.2572 173.141 44.2572C171.763 44.2572 170.504 44.1354 169.355 43.8918C168.207 43.6483 167.008 43.3032 165.759 42.8465C165.819 41.6795 165.969 40.553 166.189 39.457C166.408 38.3711 166.698 37.3258 167.048 36.3109H168.246L170.354 41.6186C170.704 41.8824 171.133 42.0245 171.623 42.055C172.122 42.0854 172.572 42.1057 172.992 42.1057C174.4 42.1057 175.529 41.7201 176.398 40.9386C177.257 40.1572 177.697 39.2134 177.697 38.1174Z" fill="white"/>
<path d="M196.927 43.6687H186.278V42.4509C186.757 42.187 187.257 41.9739 187.766 41.7912C188.276 41.6085 188.835 41.4462 189.445 41.2838V22.1438L186.278 21.7581V20.4896C187.207 20.1039 188.216 19.7589 189.295 19.4646C190.384 19.1703 191.472 18.9267 192.551 18.7339H193.75V41.2838C194.389 41.4462 194.969 41.6187 195.478 41.7912C195.988 41.9739 196.467 42.187 196.917 42.4509V43.6687H196.927ZM188.535 11.0312C188.535 10.1584 188.815 9.45818 189.375 8.94061C189.934 8.42304 190.673 8.15918 191.602 8.15918C192.531 8.15918 193.261 8.42304 193.81 8.94061C194.349 9.45818 194.629 10.1584 194.629 11.0312C194.629 11.904 194.359 12.5941 193.81 13.1015C193.271 13.6089 192.531 13.8525 191.602 13.8525C190.673 13.8525 189.934 13.5988 189.375 13.1015C188.815 12.5941 188.535 11.904 188.535 11.0312Z" fill="white"/>
<path d="M210.593 18.7336C212.321 18.7336 213.769 18.9061 214.958 19.241C216.137 19.5861 217.136 20.1138 217.935 20.8242C219.823 19.5252 221.791 18.5814 223.829 18.0029C224.089 18.3581 224.269 18.7945 224.378 19.3222C224.488 19.8398 224.548 20.3269 224.548 20.7836L223.929 21.9507H218.894C219.693 23.1178 220.093 24.6603 220.093 26.5784C220.093 28.9125 219.284 30.8204 217.675 32.2818C216.057 33.7432 213.699 34.4739 210.603 34.4739C209.993 34.4739 209.504 34.4536 209.114 34.4232C208.735 34.3927 208.295 34.342 207.816 34.2811C207.656 34.5754 207.476 34.9001 207.266 35.2553C207.056 35.6105 206.956 35.986 206.956 36.3717C206.956 37.0212 207.326 37.5286 208.055 37.9041C208.794 38.2796 209.714 38.6145 210.812 38.8986C211.911 39.1828 213.11 39.4872 214.409 39.8018C215.707 40.1063 216.906 40.5325 218.025 41.0704C219.144 41.6083 220.083 42.3085 220.832 43.161C221.581 44.0236 221.971 45.1298 222.011 46.4998C222.041 47.6669 221.781 48.7223 221.222 49.6662C220.662 50.61 219.883 51.3914 218.894 52.0307C217.905 52.66 216.716 53.1471 215.318 53.4921C213.919 53.8372 212.401 53.9995 210.742 53.9995C207.256 53.9995 204.629 53.4008 202.851 52.1931C201.072 50.9956 200.193 49.4835 200.193 47.6669C200.193 46.7941 200.333 46.0229 200.603 45.3734C200.873 44.7238 201.262 44.1555 201.782 43.6684C202.291 43.1813 202.931 42.755 203.7 42.3796C204.469 42.0041 205.348 41.659 206.337 41.3343C205.638 41.0095 205.048 40.563 204.589 39.9947C204.129 39.4263 203.89 38.7363 203.89 37.9244C203.89 37.1734 204.199 36.4427 204.829 35.712C205.448 34.9813 206.087 34.4029 206.727 33.9868C204.909 33.4996 203.51 32.5761 202.531 31.2061C201.552 29.8462 201.072 28.3036 201.072 26.5784C201.072 25.4722 201.282 24.4472 201.692 23.4831C202.111 22.5291 202.711 21.6868 203.51 20.9764C204.309 20.266 205.298 19.7079 206.487 19.3222C207.666 18.9366 209.044 18.7336 210.613 18.7336H210.593ZM217.685 47.6162C217.685 46.581 217.346 45.7488 216.656 45.1298C215.967 44.5107 215.118 44.0135 214.089 43.6177C213.07 43.232 211.961 42.9073 210.782 42.6434C209.604 42.3796 208.495 42.0954 207.476 41.7706C206.257 42.5216 205.458 43.3031 205.078 44.1352C204.699 44.9674 204.499 45.8199 204.499 46.6926C204.499 48.4179 205.108 49.7068 206.317 50.5694C207.536 51.432 209.294 51.8582 211.592 51.8582C212.77 51.8582 213.759 51.7466 214.539 51.5132C215.318 51.2899 215.947 50.9855 216.407 50.61C216.866 50.2345 217.196 49.7879 217.386 49.2704C217.575 48.7528 217.675 48.1946 217.675 47.6162H217.685ZM205.358 26.5682C205.358 27.3497 205.448 28.0905 205.618 28.7806C205.798 29.4808 206.077 30.0898 206.477 30.6073C206.876 31.1249 207.416 31.541 208.085 31.8454C208.755 32.1499 209.584 32.3123 210.583 32.3123C212.441 32.3123 213.759 31.7643 214.559 30.6581C215.358 29.5519 215.757 28.192 215.757 26.5682C215.757 24.8126 215.368 23.4222 214.579 22.4074C213.799 21.3824 212.461 20.8749 210.573 20.8749C208.685 20.8749 207.266 21.3722 206.497 22.3566C205.728 23.3512 205.348 24.7517 205.348 26.5682H205.358Z" fill="white"/>
<path d="M251.63 43.6692H241.321V42.4513C242.18 41.9947 243.129 41.609 244.148 41.2843V29.7353C244.148 27.2692 243.798 25.3207 243.089 23.8898C242.39 22.4589 241.111 21.7485 239.253 21.7485C238.454 21.7485 237.715 21.8906 237.025 22.1849C236.336 22.4792 235.727 22.875 235.207 23.3824C234.678 23.8898 234.228 24.4581 233.839 25.0873C233.459 25.7165 233.149 26.3762 232.93 27.0561V41.2843C233.919 41.4771 234.878 41.8729 235.807 42.4513V43.6692H225.447V42.4513C226.246 42.0251 227.305 41.6395 228.614 41.2843V22.1443L225.447 21.7586V20.4901C226.276 20.1349 227.235 19.8101 228.324 19.5158C229.413 19.2215 230.542 18.9678 231.731 18.7344H232.93V24.1943H232.98C233.649 22.7024 234.618 21.4136 235.877 20.348C237.135 19.2722 238.664 18.7445 240.452 18.7445C241.73 18.7445 242.869 18.8968 243.878 19.2114C244.887 19.5158 245.726 20.0638 246.396 20.8453C247.065 21.6267 247.574 22.672 247.934 23.9913C248.284 25.3106 248.464 26.9749 248.464 28.9843V41.3046C249.742 41.5278 250.801 41.9236 251.63 42.4716V43.6895V43.6692Z" fill="white"/>
</g>
<defs>
<clipPath id="clip0_631_124">
<rect width="252" height="54" fill="white"/>
</clipPath>
</defs>
</svg>
